<svg width="48" height="48" viewBox="0 0 48 48" fill="none" xmlns="http://www.w3.org/2000/svg">
  <defs>
    <linearGradient id="bgGrad" x1="0" y1="0" x2="48" y2="48" gradientUnits="userSpaceOnUse">
      <stop offset="0%" stop-color="#2563eb" />
      <stop offset="100%" stop-color="#1e40af" />
    </linearGradient>
  </defs>

  <!-- Rounded square background -->
  <rect x="0" y="0" width="48" height="48" rx="12" fill="url(#bgGrad)" />

  <!-- Main speech bubble -->
  <path
    d="M8 12 C8 9.8 9.8 8 12 8 L32 8 C34.2 8 36 9.8 36 12 L36 26 C36 28.2 34.2 30 32 30 L22 30 L17 35 L17 30 L12 30 C9.8 30 8 28.2 8 26 Z"
    fill="white"
    opacity="0.97"
  />

  <!-- Small reply bubble -->
  <path
    d="M24 31 C24 29.9 24.9 29 26 29 L37 29 C38.1 29 39 29.9 39 31 L39 38 C39 39.1 38.1 40 37 40 L32 40 L32 42.5 L29 40 L26 40 C24.9 40 24 39.1 24 38 Z"
    fill="white"
    opacity="0.32"
  />

  <!-- Three dots -->
  <circle cx="16" cy="19" r="2.2" fill="#2563eb" />
  <circle cx="22" cy="19" r="2.2" fill="#2563eb" />
  <circle cx="28" cy="19" r="2.2" fill="#2563eb" />

  <!-- Link dots on reply bubble -->
  <circle cx="30.5" cy="34.5" r="1.3" fill="#93c5fd" opacity="0.85" />
  <circle cx="34" cy="34.5" r="1.3" fill="#93c5fd" opacity="0.85" />
</svg>
