<svg width="120" height="120" viewBox="0 0 120 120" fill="none" xmlns="http://www.w3.org/2000/svg">
  <defs>
    <linearGradient id="bgGrad" x1="0" y1="0" x2="120" y2="120" gradientUnits="userSpaceOnUse">
      <stop offset="0%" stop-color="#2563eb" />
      <stop offset="100%" stop-color="#1e40af" />
    </linearGradient>
  </defs>

  <!-- Rounded square background -->
  <rect x="0" y="0" width="120" height="120" rx="30" fill="url(#bgGrad)" />

  <!-- Top-left highlight -->
  <ellipse cx="35" cy="28" rx="38" ry="22" fill="white" opacity="0.07" />

  <!-- Main speech bubble -->
  <path
    d="M22 32 C22 25.4 27.4 20 34 20 L80 20 C86.6 20 92 25.4 92 32 L92 62 C92 68.6 86.6 74 80 74 L58 74 L46 86 L46 74 L34 74 C27.4 74 22 68.6 22 62 Z"
    fill="white"
    opacity="0.97"
  />

  <!-- Small reply bubble -->
  <path
    d="M65 78 C65 74.7 67.7 72 71 72 L92 72 C95.3 72 98 74.7 98 78 L98 93 C98 96.3 95.3 99 92 99 L80 99 L80 105 L73 99 L71 99 C67.7 99 65 96.3 65 93 Z"
    fill="white"
    opacity="0.35"
  />

  <!-- Three dots inside main bubble -->
  <circle cx="42" cy="47" r="5.5" fill="#2563eb" />
  <circle cx="57" cy="47" r="5.5" fill="#2563eb" />
  <circle cx="72" cy="47" r="5.5" fill="#2563eb" />

  <!-- Link dots on reply bubble -->
  <circle cx="78" cy="85.5" r="3" fill="#93c5fd" opacity="0.85" />
  <circle cx="86" cy="85.5" r="3" fill="#93c5fd" opacity="0.85" />
</svg>
